<svg width="18" height="18" viewBox="0 0 18 18" fill="none" xmlns="http://www.w3.org/2000/svg">
<g clip-path="url(#clip0_280_2893)">
<path d="M2.97015 8.535C3.18015 7.4325 4.21515 6.675 5.34015 6.675H7.53765C7.92765 6.675 8.25015 6.3525 8.25015 5.9625C8.25015 5.5725 7.92765 5.25 7.53765 5.25H5.41515C3.45765 5.25 1.71015 6.6825 1.52265 8.6325C1.30515 10.8675 3.06015 12.75 5.25015 12.75H7.53765C7.92765 12.75 8.25015 12.4275 8.25015 12.0375C8.25015 11.6475 7.92765 11.325 7.53765 11.325H5.25015C3.81765 11.325 2.68515 10.02 2.97015 8.535ZM6.75015 9.75H11.2501C11.6626 9.75 12.0001 9.4125 12.0001 9C12.0001 8.5875 11.6626 8.25 11.2501 8.25H6.75015C6.33765 8.25 6.00015 8.5875 6.00015 9C6.00015 9.4125 6.33765 9.75 6.75015 9.75ZM12.5851 5.25H10.4626C10.0726 5.25 9.75015 5.5725 9.75015 5.9625C9.75015 6.3525 10.0726 6.675 10.4626 6.675H12.6601C13.7851 6.675 14.8202 7.4325 15.0302 8.535C15.3152 10.02 14.1826 11.325 12.7501 11.325H10.4626C10.0726 11.325 9.75015 11.6475 9.75015 12.0375C9.75015 12.4275 10.0726 12.75 10.4626 12.75H12.7501C14.9401 12.75 16.6951 10.8675 16.4851 8.6325C16.2976 6.6825 14.5426 5.25 12.5851 5.25Z" fill="white"/>
</g>
<defs>
<clipPath id="clip0_280_2893">
<rect width="18" height="18" fill="white"/>
</clipPath>
</defs>
</svg>
