<svg width="10" height="10" viewBox="0 0 10 10" fill="none" xmlns="http://www.w3.org/2000/svg">
<g clip-path="url(#clip0_280_2905)">
<path d="M1.64976 4.74199C1.76642 4.12949 2.34142 3.70866 2.96642 3.70866H4.18726C4.40392 3.70866 4.58309 3.52949 4.58309 3.31283C4.58309 3.09616 4.40392 2.91699 4.18726 2.91699H3.00809C1.92059 2.91699 0.949757 3.71283 0.84559 4.79616C0.724757 6.03783 1.69976 7.08366 2.91642 7.08366H4.18726C4.40392 7.08366 4.58309 6.90449 4.58309 6.68783C4.58309 6.47116 4.40392 6.29199 4.18726 6.29199H2.91642C2.12059 6.29199 1.49142 5.56699 1.64976 4.74199ZM3.74976 5.41699H6.24976C6.47892 5.41699 6.66642 5.22949 6.66642 5.00033C6.66642 4.77116 6.47892 4.58366 6.24976 4.58366H3.74976C3.52059 4.58366 3.33309 4.77116 3.33309 5.00033C3.33309 5.22949 3.52059 5.41699 3.74976 5.41699ZM6.99142 2.91699H5.81226C5.59559 2.91699 5.41642 3.09616 5.41642 3.31283C5.41642 3.52949 5.59559 3.70866 5.81226 3.70866H7.03309C7.65809 3.70866 8.23309 4.12949 8.34976 4.74199C8.50809 5.56699 7.87892 6.29199 7.08309 6.29199H5.81226C5.59559 6.29199 5.41642 6.47116 5.41642 6.68783C5.41642 6.90449 5.59559 7.08366 5.81226 7.08366H7.08309C8.29976 7.08366 9.27476 6.03783 9.15809 4.79616C9.05392 3.71283 8.07892 2.91699 6.99142 2.91699Z" fill="white"/>
</g>
<defs>
<clipPath id="clip0_280_2905">
<rect width="10" height="10" fill="white"/>
</clipPath>
</defs>
</svg>
