<svg width="12" height="12" viewBox="0 0 12 12" fill="none" xmlns="http://www.w3.org/2000/svg">
<g clip-path="url(#clip0_280_2902)">
<path d="M1.9801 5.69C2.1201 4.955 2.8101 4.45 3.5601 4.45H5.0251C5.2851 4.45 5.5001 4.235 5.5001 3.975C5.5001 3.715 5.2851 3.5 5.0251 3.5H3.6101C2.3051 3.5 1.1401 4.455 1.0151 5.755C0.870099 7.245 2.0401 8.5 3.5001 8.5H5.0251C5.2851 8.5 5.5001 8.285 5.5001 8.025C5.5001 7.765 5.2851 7.55 5.0251 7.55H3.5001C2.5451 7.55 1.7901 6.68 1.9801 5.69ZM4.5001 6.5H7.5001C7.7751 6.5 8.0001 6.275 8.0001 6C8.0001 5.725 7.7751 5.5 7.5001 5.5H4.5001C4.2251 5.5 4.0001 5.725 4.0001 6C4.0001 6.275 4.2251 6.5 4.5001 6.5ZM8.3901 3.5H6.9751C6.7151 3.5 6.5001 3.715 6.5001 3.975C6.5001 4.235 6.7151 4.45 6.9751 4.45H8.4401C9.1901 4.45 9.8801 4.955 10.0201 5.69C10.2101 6.68 9.4551 7.55 8.5001 7.55H6.9751C6.7151 7.55 6.5001 7.765 6.5001 8.025C6.5001 8.285 6.7151 8.5 6.9751 8.5H8.5001C9.9601 8.5 11.1301 7.245 10.9901 5.755C10.8651 4.455 9.6951 3.5 8.3901 3.5Z" fill="white"/>
</g>
<defs>
<clipPath id="clip0_280_2902">
<rect width="12" height="12" fill="white"/>
</clipPath>
</defs>
</svg>
